<svg width="133" height="86" viewBox="0 0 133 86" fill="none" xmlns="http://www.w3.org/2000/svg">
<g clip-path="url(#clip0_1_33)">
<path d="M10 39.5C10 31.4919 16.4919 25 24.5 25C28.8417 25 32.7378 26.9082 35.3952 29.9318C40.2168 35.345 44.2038 35.0602 48.4379 31.0639C50.5154 29.1024 53.3173 27.9 56.4 27.9C62.8065 27.9 68 33.0935 68 39.5C68 45.9065 62.8065 51.1 56.4 51.1C53.3173 51.1 50.5154 49.8975 48.4379 47.936C44.2048 43.9407 40.2187 43.655 35.3987 49.0642C32.7412 52.0901 28.8436 54 24.5 54C16.4919 54 10 47.5081 10 39.5Z" fill="#F2F5FA"/>
<path d="M10 39.5C10 31.4919 16.4919 25 24.5 25C28.8417 25 32.7378 26.9082 35.3952 29.9318C40.2168 35.345 44.2038 35.0602 48.4379 31.0639C50.5154 29.1024 53.3173 27.9 56.4 27.9C62.8065 27.9 68 33.0935 68 39.5C68 45.9065 62.8065 51.1 56.4 51.1C53.3173 51.1 50.5154 49.8975 48.4379 47.936C44.2048 43.9407 40.2187 43.655 35.3987 49.0642C32.7412 52.0901 28.8436 54 24.5 54C16.4919 54 10 47.5081 10 39.5Z" fill="url(#paint0_linear_1_33)"/>
<path d="M10 39.5C10 31.4919 16.4919 25 24.5 25C28.8417 25 32.7378 26.9082 35.3952 29.9318C40.2168 35.345 44.2038 35.0602 48.4379 31.0639C50.5154 29.1024 53.3173 27.9 56.4 27.9C62.8065 27.9 68 33.0935 68 39.5C68 45.9065 62.8065 51.1 56.4 51.1C53.3173 51.1 50.5154 49.8975 48.4379 47.936C44.2048 43.9407 40.2187 43.655 35.3987 49.0642C32.7412 52.0901 28.8436 54 24.5 54C16.4919 54 10 47.5081 10 39.5Z" fill="url(#paint1_linear_1_33)"/>
<path d="M10 39.5C10 31.4919 16.4919 25 24.5 25C28.8417 25 32.7378 26.9082 35.3952 29.9318C40.2168 35.345 44.2038 35.0602 48.4379 31.0639C50.5154 29.1024 53.3173 27.9 56.4 27.9C62.8065 27.9 68 33.0935 68 39.5C68 45.9065 62.8065 51.1 56.4 51.1C53.3173 51.1 50.5154 49.8975 48.4379 47.936C44.2048 43.9407 40.2187 43.655 35.3987 49.0642C32.7412 52.0901 28.8436 54 24.5 54C16.4919 54 10 47.5081 10 39.5Z" fill="url(#paint2_radial_1_33)"/>
<path d="M10 39.5C10 31.4919 16.4919 25 24.5 25C28.8417 25 32.7378 26.9082 35.3952 29.9318C40.2168 35.345 44.2038 35.0602 48.4379 31.0639C50.5154 29.1024 53.3173 27.9 56.4 27.9C62.8065 27.9 68 33.0935 68 39.5C68 45.9065 62.8065 51.1 56.4 51.1C53.3173 51.1 50.5154 49.8975 48.4379 47.936C44.2048 43.9407 40.2187 43.655 35.3987 49.0642C32.7412 52.0901 28.8436 54 24.5 54C16.4919 54 10 47.5081 10 39.5Z" fill="url(#paint3_radial_1_33)"/>
<path d="M10 39.5C10 31.4919 16.4919 25 24.5 25C28.8417 25 32.7378 26.9082 35.3952 29.9318C40.2168 35.345 44.2038 35.0602 48.4379 31.0639C50.5154 29.1024 53.3173 27.9 56.4 27.9C62.8065 27.9 68 33.0935 68 39.5C68 45.9065 62.8065 51.1 56.4 51.1C53.3173 51.1 50.5154 49.8975 48.4379 47.936C44.2048 43.9407 40.2187 43.655 35.3987 49.0642C32.7412 52.0901 28.8436 54 24.5 54C16.4919 54 10 47.5081 10 39.5Z" fill="url(#paint4_radial_1_33)"/>
<path d="M57.856 63.448C58.976 63.448 60.192 63.4 61.504 63.304C62.816 63.24 64.064 63.112 65.248 62.92C66.4 62.728 67.36 62.504 68.128 62.248V56.488C67.264 56.776 66.272 57.016 65.152 57.208C64 57.4 62.832 57.544 61.648 57.64C60.464 57.736 59.376 57.784 58.384 57.784C56.688 57.784 55.36 57.688 54.4 57.496C53.408 57.336 52.912 57.032 52.912 56.584C52.912 56.2 53.072 55.944 53.392 55.816C53.712 55.72 54.32 55.672 55.216 55.672H61.216C63.552 55.672 65.36 55.304 66.64 54.568C67.888 53.8 68.512 52.664 68.512 51.16C68.512 49.048 67.344 47.576 65.008 46.744C66.32 46.072 67.28 45.224 67.888 44.2C68.496 43.176 68.8 41.88 68.8 40.312C68.8 37.368 67.808 35.208 65.824 33.832C63.808 32.456 60.912 31.768 57.136 31.768C56.336 31.768 55.44 31.832 54.448 31.96C53.456 32.056 52.736 32.152 52.288 32.248H43.36L43.552 37.72H46.576C46 38.456 45.712 39.352 45.712 40.408C45.712 42.744 46.4 44.6 47.776 45.976C49.12 47.32 51.248 47.992 54.16 47.992C54.576 47.992 55.024 47.976 55.504 47.944C55.984 47.88 56.432 47.832 56.848 47.8C57.552 47.864 58.16 47.992 58.672 48.184C59.184 48.376 59.44 48.696 59.44 49.144C59.44 49.464 59.296 49.688 59.008 49.816C58.72 49.912 58.32 49.96 57.808 49.96H52.576C50.24 49.96 48.4 50.504 47.056 51.592C45.712 52.68 45.04 54.28 45.04 56.392C45.04 58.632 46.08 60.36 48.16 61.576C50.24 62.824 53.472 63.448 57.856 63.448ZM57.088 43.048C55.68 43.048 54.704 42.808 54.16 42.328C53.616 41.848 53.344 41.048 53.344 39.928C53.344 38.808 53.616 37.992 54.16 37.48C54.704 36.968 55.68 36.712 57.088 36.712C58.4 36.712 59.36 36.968 59.968 37.48C60.544 37.96 60.832 38.776 60.832 39.928C60.832 41.016 60.56 41.816 60.016 42.328C59.44 42.808 58.464 43.048 57.088 43.048Z" fill="black"/>
</g>
<path d="M18.096 53.48C12.592 53.48 8.4 52.136 5.52 49.448C2.64 46.728 1.2 42.856 1.2 37.832C1.2 32.648 2.688 28.648 5.664 25.832C8.64 23.016 12.992 21.608 18.72 21.608C20.64 21.608 22.368 21.72 23.904 21.944C25.472 22.168 26.944 22.504 28.32 22.952V30.68C26.912 30.136 25.456 29.768 23.952 29.576C22.448 29.384 20.912 29.288 19.344 29.288C16.368 29.288 14.128 29.96 12.624 31.304C11.152 32.648 10.416 34.824 10.416 37.832C10.416 40.648 11.056 42.68 12.336 43.928C13.648 45.176 15.568 45.8 18.096 45.8C18.928 45.8 19.712 45.752 20.448 45.656C21.184 45.528 21.872 45.368 22.512 45.176V40.664H16.368V35.096H30.048V50.648C28.864 51.384 27.28 52.04 25.296 52.616C23.344 53.192 20.944 53.48 18.096 53.48Z" fill="black"/>
<defs>
<linearGradient id="paint0_linear_1_33" x1="53.6961" y1="46.7069" x2="20.3036" y2="20.7567" gradientUnits="userSpaceOnUse">
<stop stop-color="#FF557E"/>
<stop offset="0.841052" stop-color="#FF5555" stop-opacity="0"/>
</linearGradient>
<linearGradient id="paint1_linear_1_33" x1="24.5023" y1="52.0553" x2="33.4238" y2="21.15" gradientUnits="userSpaceOnUse">
<stop stop-color="#58CCDC"/>
<stop offset="1" stop-color="#58CCDC" stop-opacity="0"/>
</linearGradient>
<radialGradient id="paint2_radial_1_33" cx="0" cy="0" r="1" gradientUnits="userSpaceOnUse" gradientTransform="translate(55.4879 60.041) rotate(-122.928) scale(37.051 30.3393)">
<stop stop-color="#8263DB"/>
<stop offset="0.568731" stop-color="#8172DA" stop-opacity="0.26"/>
<stop offset="1" stop-color="#8172DA" stop-opacity="0"/>
</radialGradient>
<radialGradient id="paint3_radial_1_33" cx="0" cy="0" r="1" gradientUnits="userSpaceOnUse" gradientTransform="translate(28.3021 20.805) rotate(77.6745) scale(24.9567 39.2264)">
<stop stop-color="#41D1B7"/>
<stop offset="0.492704" stop-color="#41D1B7" stop-opacity="0.35"/>
<stop offset="1" stop-color="#41D1B7" stop-opacity="0"/>
</radialGradient>
<radialGradient id="paint4_radial_1_33" cx="0" cy="0" r="1" gradientUnits="userSpaceOnUse" gradientTransform="translate(69.6446 14.2554) rotate(125.113) scale(27.1121 57.4261)">
<stop stop-color="#FFEC45"/>
<stop offset="0.549191" stop-color="#FFEC45" stop-opacity="0.3"/>
<stop offset="0.961144" stop-color="#FFEC45" stop-opacity="0"/>
</radialGradient>
<clipPath id="clip0_1_33">
<rect width="123" height="61" fill="white" transform="translate(10 25)"/>
</clipPath>
</defs>
</svg>
